#!OML:ASF F:\VICON\USERDATA\INSTALL\rory3\rory3.ASF
:FULLY-SPECIFIED
:DEGREES
795
root 0.174805 18.012 -1.31108 3.55243 -9.26126 1.90933
lowerback 1.08338 -1.00015 -4.41048
upperback 1.62029 -1.36744 2.04356
thorax 1.21461 -0.752789 4.58353
lowerneck -13.4716 1.04527 -10.0372
upperneck 20.2562 2.97361 3.34714
head 8.32988 0.973863 3.11572
rclavicle 6.65929e-015 2.78299e-014
rhumerus -37.1319 6.40581 -84.3679
rradius 69.8221
rwrist 9.53013
rhand -24.638 8.07602
rfingers 7.12502
rthumb 1.8612 -21.8956
lclavicle 6.65929e-015 2.78299e-014
lhumerus -10.3079 -28.3695 86.5241
lradius 116.178
lwrist 11.6199
lhand -23.3044 38.8027
lfingers 7.12502
lthumb 3.14918 68.7592
rfemur -11.6451 7.38607 13.2523
rtibia 25.7507
rfoot -14.9165 -3.19155
rtoes 5.20056
lfemur -4.31977 -1.8134 -22.6536
ltibia 14.7663
lfoot -9.87982 4.23456
ltoes -12.1498
796
root 0.177822 18.0116 -1.3123 3.48401 -9.32936 1.69668
lowerback 1.22464 -0.997866 -4.14998
upperback 1.55078 -1.36955 2.10309
thorax 1.0585 -0.745815 4.50126
lowerneck -13.428 1.10651 -9.89498
upperneck 20.2603 3.03334 3.29032
head 8.32171 1.00681 3.07856
rclavicle -3.8763e-014 1.59028e-014
rhumerus -37.121 6.88112 -84.6039
rradius 71.6047
rwrist 9.5489
rhand -24.7158 8.1941
rfingers 7.12502
rthumb 1.78602 -21.7782
lclavicle -3.8763e-014 1.59028e-014
lhumerus -11.1535 -28.4166 86.8639
lradius 115.932
lwrist 11.7012
lhand -23.3636 38.9154
lfingers 7.12502
lthumb 3.09192 68.8727
rfemur -11.52 7.40543 13.4884
rtibia 25.6798
rfoot -14.8644 -3.1111
rtoes 5.18692
lfemur -4.22694 -1.77043 -22.4328
ltibia 14.8114
lfoot -9.93102 4.2585
ltoes -12.1076
797
root 0.178741 18.0103 -1.31128 3.4092 -9.47579 1.67974
lowerback 1.31299 -0.998351 -4.12527
upperback 1.46492 -1.37371 2.11635
thorax 0.9206 -0.742486 4.50374
lowerneck -13.6764 1.05816 -10.0981
upperneck 20.5775 3.0197 3.40732
head 8.47034 0.986317 3.16234
rclavicle 2.26615e-014 1.11319e-014
rhumerus -37.0915 7.42571 -84.8564
rradius 73.4177
rwrist 9.72719
rhand -24.8446 8.09614
rfingers 7.12502
rthumb 1.66161 -21.8771
lclavicle 2.26615e-014 1.11319e-014
lhumerus -12.1181 -28.3604 87.2834
lradius 115.588
lwrist 11.7437
lhand -23.2938 38.7511
lfingers 7.12502
lthumb 3.15933 68.7074
rfemur -11.4345 7.50341 13.5055
rtibia 25.5999
rfoot -14.7925 -3.11402
rtoes 5.10874
lfemur -4.16152 -1.68413 -22.4323
ltibia 14.8846
lfoot -10.0083 4.35514
ltoes -12.595
798
root 0.181224 18.0083 -1.30775 3.35516 -9.62816 1.66966
lowerback 1.16235 -1.0205 -4.09265
upperback 1.53773 -1.39755 2.12206
thorax 1.08203 -0.75968 4.48731
lowerneck -14.1368 0.971873 -10.5034
upperneck 20.8244 3.0032 3.63016
head 8.63008 0.962646 3.31767
rclavicle 6.65929e-015 -1.59028e-015
rhumerus -36.7105 7.97762 -85.1032
rradius 75.1825
rwrist 9.99533
rhand -24.7998 8.35554
rfingers 7.12502
rthumb 1.70495 -21.6174
lclavicle 6.65929e-015 -1.59028e-015
lhumerus -12.778 -28.2429 87.5553
lradius 115.125
lwrist 11.8772
lhand -23.1393 38.464
lfingers 7.12502
lthumb 3.30854 68.418
rfemur -11.3895 7.54009 13.5088
rtibia 25.5752
rfoot -14.7267 -3.05107
rtoes 5.0338
lfemur -4.06344 -1.6326 -22.4449
ltibia 14.8745
lfoot -10.0171 4.49399
ltoes -12.4975
799
root 0.182967 18.008 -1.30481 3.33135 -9.72248 1.67294
lowerback 1.30928 -1.0566 -4.14839
upperback 1.35306 -1.45252 2.19238
thorax 0.818813 -0.777836 4.59716
lowerneck -14.3268 0.993526 -10.737
upperneck 21.0893 3.10233 3.68869
head 8.74402 0.987734 3.39708
rclavicle -1.90833e-014 9.54166e-015
rhumerus -36.7088 8.72486 -85.3019
rradius 77.0058
rwrist 9.97265
rhand -24.6942 8.67176
rfingers 7.12502
rthumb 1.80689 -21.3003
lclavicle -1.90833e-014 9.54166e-015
lhumerus -13.9352 -28.1235 88.1404
lradius 114.65
lwrist 12.0065
lhand -23.002 38.09
lfingers 7.12502
lthumb 3.44112 68.042
rfemur -11.3899 7.52701 13.4938
rtibia 25.6096
rfoot -14.6877 -2.91223
rtoes 5.04973
lfemur -3.95797 -1.60946 -22.4653
ltibia 14.7574
lfoot -9.92962 4.57478
ltoes -12.4015
